PathFileType	4	(X/Y/Z)	 2.2Hzlow3min.trc
DataRate	CameraRate	NumFrames	NumMarkers	Units	OrigDataRate	OrigDataStartFrame	OrigNumFrames
200	200	9	43	m	200	626	1000
Frame#	Time	C7			LSH			RSH			MAN			RASI			LASI			HIPR			HIPL			RPSI			LPSI			COX			RTHI1			RTHI2			RTHI3			RTHI4			RLKN			RMKN			RSHA1			RSHA2			RSHA3			RSHA4			RLMAL			RMMAL			RHEEL			RMET5			RMET1			RTOE			LTHI1			LTHI2			LTHI3			LTHI4			LLKN			LMKN			LSHA1			LSHA2			LSHA3			LSHA4			LLMAL			LMMAL			LHEEL			LMET5			LMET1			LTOE			
		X1	Y1	Z1	X2	Y2	Z2	X3	Y3	Z3	X4	Y4	Z4	X5	Y5	Z5	X6	Y6	Z6	X7	Y7	Z7	X8	Y8	Z8	X9	Y9	Z9	X10	Y10	Z10	X11	Y11	Z11	X12	Y12	Z12	X13	Y13	Z13	X14	Y14	Z14	X15	Y15	Z15	X16	Y16	Z16	X17	Y17	Z17	X18	Y18	Z18	X19	Y19	Z19	X20	Y20	Z20	X21	Y21	Z21	X22	Y22	Z22	X23	Y23	Z23	X24	Y24	Z24	X25	Y25	Z25	X26	Y26	Z26	X27	Y27	Z27	X28	Y28	Z28	X29	Y29	Z29	X30	Y30	Z30	X31	Y31	Z31	X32	Y32	Z32	X33	Y33	Z33	X34	Y34	Z34	X35	Y35	Z35	X36	Y36	Z36	X37	Y37	Z37	X38	Y38	Z38	X39	Y39	Z39	X40	Y40	Z40	X41	Y41	Z41	X42	Y42	Z42	X43	Y43	Z43	
626	3.1300	-0.326934	1.316362	-0.499289	-0.243049	1.314078	-0.659882	-0.247345	1.300948	-0.353253	-0.195926	1.248637	-0.506104	-0.213549	0.815367	-0.378962	-0.222047	0.811706	-0.630993	-0.259670	0.873794	-0.357786	-0.268768	0.875276	-0.650150	-0.377843	0.856499	-0.466291	-0.382624	0.853043	-0.531945	-0.386278	0.851765	-0.499483	-0.290760	0.633675	-0.319287	-0.261894	0.581430	-0.314118	-0.203759	0.608855	-0.309877	-0.225048	0.666686	-0.314593	-0.207783	0.395201	-0.327939	-0.191715	0.383361	-0.446779	-0.336182	0.283716	-0.339482	-0.350872	0.247477	-0.350208	-0.306430	0.218532	-0.333320	-0.284577	0.256070	-0.323659	-0.380556	0.098944	-0.372929	-0.356646	0.102604	-0.449243	-0.432313	0.096729	-0.414683	-0.295521	0.031747	-0.342993	-0.253740	0.045947	-0.407599	-0.225981	0.034103	-0.405665	-0.322202	0.644253	-0.680745	-0.297929	0.588060	-0.688305	-0.236963	0.609377	-0.698212	-0.254227	0.666729	-0.692659	-0.248874	0.376847	-0.687649	-0.230061	0.372410	-0.573049	-0.391854	0.257026	-0.665340	-0.410058	0.225095	-0.652686	-0.357679	0.194470	-0.666930	-0.344942	0.234578	-0.680244	-0.430323	0.103819	-0.635626	-0.411871	0.107997	-0.558845	-0.480380	0.111575	-0.582904	-0.355334	0.036910	-0.660495	-0.310793	0.047368	-0.596831	-0.286734	0.036269	-0.601048	
627	3.1350	-0.326785	1.311846	-0.499422	-0.243064	1.309592	-0.660399	-0.247689	1.296459	-0.352853	-0.195511	1.243976	-0.506088	-0.214568	0.809917	-0.378195	-0.222869	0.806563	-0.631575	-0.261266	0.867511	-0.357104	-0.270093	0.868947	-0.650432	-0.379475	0.850917	-0.466168	-0.384133	0.847549	-0.531938	-0.387887	0.846322	-0.499425	-0.291229	0.629185	-0.319332	-0.262128	0.577051	-0.314415	-0.204155	0.604749	-0.309598	-0.225711	0.662504	-0.313983	-0.206345	0.391593	-0.328365	-0.190066	0.380587	-0.447257	-0.335073	0.280834	-0.340168	-0.349919	0.244514	-0.350963	-0.305527	0.215530	-0.334493	-0.283508	0.252888	-0.324791	-0.380962	0.097376	-0.374314	-0.356881	0.100888	-0.450615	-0.432726	0.095054	-0.416339	-0.295860	0.031718	-0.343228	-0.253756	0.045934	-0.407707	-0.225804	0.034065	-0.405327	-0.322092	0.640497	-0.681820	-0.297751	0.584306	-0.689019	-0.236729	0.605588	-0.698578	-0.254042	0.662966	-0.693370	-0.248341	0.373328	-0.688208	-0.228597	0.368871	-0.573758	-0.391908	0.254818	-0.665044	-0.410290	0.222786	-0.652088	-0.358160	0.192065	-0.666927	-0.345233	0.232134	-0.680223	-0.431287	0.102134	-0.635064	-0.412587	0.106443	-0.558301	-0.481199	0.109699	-0.582125	-0.355784	0.036588	-0.660591	-0.311050	0.047437	-0.596882	-0.286746	0.036259	-0.601209	
628	3.1400	-0.326629	1.307927	-0.499565	-0.243071	1.305663	-0.660878	-0.248032	1.292541	-0.352513	-0.195211	1.239948	-0.506042	-0.215553	0.805106	-0.377334	-0.223582	0.802139	-0.632063	-0.262876	0.861908	-0.356411	-0.271397	0.863334	-0.650752	-0.380910	0.846280	-0.466094	-0.385441	0.843050	-0.531951	-0.389263	0.841819	-0.499410	-0.291650	0.625334	-0.319595	-0.262308	0.573326	-0.314891	-0.204507	0.601308	-0.309491	-0.226334	0.658975	-0.313580	-0.204892	0.388606	-0.328941	-0.188399	0.378442	-0.447814	-0.333994	0.278567	-0.341078	-0.348947	0.242176	-0.351940	-0.304611	0.213130	-0.335770	-0.282484	0.250363	-0.325949	-0.381099	0.096287	-0.375870	-0.356815	0.099645	-0.452013	-0.432848	0.093853	-0.418124	-0.296153	0.031695	-0.343564	-0.253644	0.045932	-0.407882	-0.225554	0.034048	-0.405008	-0.321808	0.637702	-0.682679	-0.297469	0.581485	-0.689599	-0.236360	0.602693	-0.698786	-0.253656	0.660099	-0.693817	-0.247899	0.370453	-0.688618	-0.227214	0.366081	-0.574321	-0.391775	0.253119	-0.664663	-0.410327	0.220939	-0.651340	-0.358430	0.190198	-0.666852	-0.345333	0.230234	-0.680141	-0.431916	0.100843	-0.634500	-0.413006	0.105257	-0.557766	-0.481709	0.108258	-0.581363	-0.356122	0.036373	-0.660614	-0.311196	0.047497	-0.596882	-0.286708	0.036234	-0.601333	
629	3.1450	-0.326462	1.304695	-0.499703	-0.243041	1.302326	-0.661299	-0.248362	1.289235	-0.352227	-0.195027	1.236612	-0.505963	-0.216463	0.801076	-0.376414	-0.224146	0.798550	-0.632389	-0.264415	0.857179	-0.355732	-0.272604	0.858659	-0.651122	-0.382050	0.842699	-0.466086	-0.386493	0.839651	-0.531986	-0.390350	0.838345	-0.499435	-0.291960	0.622143	-0.320047	-0.262366	0.570273	-0.315490	-0.204739	0.598548	-0.309555	-0.226850	0.656117	-0.313419	-0.203410	0.386253	-0.329601	-0.186692	0.376892	-0.448441	-0.332933	0.276974	-0.342163	-0.347907	0.240461	-0.353096	-0.303698	0.211395	-0.337050	-0.281492	0.248525	-0.327109	-0.380973	0.095614	-0.377482	-0.356445	0.098825	-0.453397	-0.432708	0.093115	-0.419952	-0.296380	0.031779	-0.344014	-0.253409	0.045897	-0.408075	-0.225242	0.034038	-0.404703	-0.321377	0.635661	-0.683306	-0.297037	0.579437	-0.690061	-0.235850	0.600601	-0.698885	-0.253134	0.658019	-0.694037	-0.247470	0.368276	-0.688883	-0.225956	0.364031	-0.574710	-0.391471	0.251906	-0.664286	-0.410176	0.219663	-0.650729	-0.358457	0.188832	-0.666705	-0.345206	0.228824	-0.680001	-0.432256	0.099943	-0.633972	-0.413144	0.104432	-0.557274	-0.481943	0.107273	-0.580669	-0.356358	0.036239	-0.660569	-0.311275	0.047537	-0.596874	-0.286626	0.036228	-0.601464	
630	3.1500	-0.326281	1.302224	-0.499822	-0.242972	1.299619	-0.661656	-0.248666	1.286583	-0.351983	-0.194962	1.233998	-0.505853	-0.217255	0.797952	-0.375499	-0.224530	0.795882	-0.632509	-0.265805	0.853510	-0.355107	-0.273622	0.855124	-0.651526	-0.382852	0.840188	-0.466161	-0.387209	0.837323	-0.532060	-0.391084	0.835900	-0.499518	-0.292118	0.619621	-0.320637	-0.262253	0.567906	-0.316142	-0.204805	0.596490	-0.309764	-0.227219	0.653945	-0.313498	-0.201933	0.384585	-0.330273	-0.184944	0.375862	-0.449125	-0.331873	0.276031	-0.343380	-0.346942	0.239458	-0.354488	-0.302828	0.210336	-0.338281	-0.280558	0.247387	-0.328208	-0.380600	0.095309	-0.379027	-0.355834	0.098361	-0.454701	-0.432351	0.092808	-0.421713	-0.296519	0.031915	-0.344517	-0.253102	0.045823	-0.408300	-0.224875	0.034031	-0.404449	-0.320849	0.634180	-0.683704	-0.296447	0.577994	-0.690410	-0.235222	0.599199	-0.698916	-0.252555	0.656601	-0.694081	-0.246962	0.366797	-0.689008	-0.224816	0.362688	-0.574906	-0.390972	0.251155	-0.663935	-0.409811	0.218905	-0.650236	-0.358256	0.187937	-0.666498	-0.344861	0.227884	-0.679812	-0.432349	0.099450	-0.633533	-0.413055	0.103941	-0.556849	-0.481934	0.106749	-0.580102	-0.356489	0.036177	-0.660486	-0.311281	0.047554	-0.596856	-0.286509	0.036222	-0.601577	
631	3.1550	-0.326088	1.300557	-0.499912	-0.242864	1.297585	-0.661955	-0.248923	1.284614	-0.351770	-0.194935	1.232120	-0.505737	-0.217892	0.795826	-0.374645	-0.224707	0.794177	-0.632415	-0.266973	0.851021	-0.354579	-0.274374	0.852887	-0.651926	-0.383364	0.838614	-0.466309	-0.387677	0.835946	-0.532167	-0.391546	0.834369	-0.499648	-0.292112	0.617778	-0.321308	-0.261959	0.566231	-0.316797	-0.204695	0.595141	-0.310084	-0.227428	0.652474	-0.313778	-0.200428	0.383579	-0.330970	-0.183157	0.375268	-0.449861	-0.330868	0.275791	-0.344624	-0.346103	0.239204	-0.355999	-0.302022	0.209945	-0.339421	-0.279644	0.246893	-0.329280	-0.380055	0.095364	-0.380423	-0.355060	0.098183	-0.455866	-0.431822	0.092890	-0.423305	-0.296589	0.032086	-0.345037	-0.252713	0.045749	-0.408553	-0.224482	0.034018	-0.404277	-0.320284	0.633140	-0.683903	-0.295735	0.577036	-0.690653	-0.234522	0.598401	-0.698908	-0.251998	0.655749	-0.693995	-0.246311	0.365986	-0.688998	-0.223767	0.362018	-0.574896	-0.390365	0.250849	-0.663662	-0.409329	0.218733	-0.650039	-0.357866	0.187511	-0.666267	-0.344333	0.227409	-0.679597	-0.432227	0.099339	-0.633220	-0.412772	0.103782	-0.556541	-0.481734	0.106674	-0.579706	-0.356524	0.036162	-0.660391	-0.311217	0.047554	-0.596831	-0.286360	0.036216	-0.601668	
632	3.1600	-0.325889	1.299702	-0.499959	-0.242690	1.296266	-0.662180	-0.249117	1.283364	-0.351577	-0.194873	1.230972	-0.505639	-0.218344	0.794754	-0.373906	-0.224677	0.793440	-0.632135	-0.267884	0.849774	-0.354191	-0.274801	0.852000	-0.652267	-0.383650	0.837839	-0.466508	-0.387961	0.835378	-0.532308	-0.391804	0.833619	-0.499814	-0.291955	0.616622	-0.322005	-0.261503	0.565262	-0.317423	-0.204423	0.594516	-0.310483	-0.227484	0.651707	-0.314199	-0.198913	0.383200	-0.331688	-0.181365	0.375030	-0.450631	-0.329922	0.276180	-0.345844	-0.345331	0.239624	-0.357486	-0.301265	0.210166	-0.340438	-0.278794	0.247030	-0.330249	-0.379430	0.095736	-0.381568	-0.354194	0.098264	-0.456845	-0.431178	0.093324	-0.424622	-0.296573	0.032281	-0.345534	-0.252313	0.045691	-0.408807	-0.224108	0.034004	-0.404171	-0.319741	0.632527	-0.683932	-0.294971	0.576535	-0.690779	-0.233817	0.598162	-0.698860	-0.251521	0.655421	-0.693825	-0.245484	0.365802	-0.688858	-0.222782	0.361986	-0.574691	-0.389673	0.250988	-0.663458	-0.408719	0.219055	-0.650026	-0.357332	0.187553	-0.666073	-0.343677	0.227418	-0.679407	-0.431920	0.099584	-0.633070	-0.412368	0.103933	-0.556378	-0.481391	0.107009	-0.579520	-0.356464	0.036194	-0.660300	-0.311093	0.047525	-0.596803	-0.286205	0.036208	-0.601723	
633	3.1650	-0.325708	1.299635	-0.499952	-0.242458	1.295680	-0.662331	-0.249241	1.282849	-0.351406	-0.194783	1.230548	-0.505558	-0.218590	0.794736	-0.373301	-0.224455	0.793646	-0.631727	-0.268521	0.849728	-0.353981	-0.274890	0.852413	-0.652476	-0.383748	0.837759	-0.466741	-0.388096	0.835505	-0.532479	-0.391901	0.833566	-0.500003	-0.291677	0.616170	-0.322684	-0.260921	0.564997	-0.318016	-0.204015	0.594591	-0.310941	-0.227404	0.651640	-0.314707	-0.197445	0.383426	-0.332419	-0.179561	0.375142	-0.451446	-0.329039	0.277090	-0.346992	-0.344673	0.240593	-0.358838	-0.300574	0.210937	-0.341321	-0.278022	0.247732	-0.331110	-0.378763	0.096410	-0.382388	-0.353323	0.098588	-0.457594	-0.430467	0.094072	-0.425592	-0.296491	0.032498	-0.345967	-0.251925	0.045609	-0.409039	-0.223780	0.033976	-0.404131	-0.319262	0.632401	-0.683802	-0.294231	0.576544	-0.690783	-0.233173	0.598477	-0.698761	-0.251143	0.655638	-0.693595	-0.244503	0.366191	-0.688604	-0.221846	0.362546	-0.574314	-0.388948	0.251578	-0.663332	-0.408026	0.219867	-0.650209	-0.356698	0.188060	-0.665955	-0.342962	0.227905	-0.679267	-0.431457	0.100154	-0.633112	-0.411881	0.104346	-0.556385	-0.480923	0.107706	-0.579580	-0.356318	0.036273	-0.660240	-0.310939	0.047477	-0.596769	-0.286055	0.036206	-0.601737	
634	3.1700	-0.325562	1.300331	-0.499876	-0.242192	1.295851	-0.662417	-0.249269	1.283081	-0.351269	-0.194683	1.230838	-0.505486	-0.218622	0.795703	-0.372864	-0.224063	0.794742	-0.631267	-0.268887	0.850770	-0.353951	-0.274664	0.853984	-0.652510	-0.383685	0.838295	-0.466980	-0.388021	0.836206	-0.532667	-0.391810	0.834124	-0.500215	-0.291309	0.616433	-0.323307	-0.260262	0.565427	-0.318568	-0.203507	0.595332	-0.311447	-0.227197	0.652255	-0.315262	-0.196100	0.384244	-0.333172	-0.177825	0.375614	-0.452292	-0.328252	0.278426	-0.348016	-0.344128	0.242029	-0.360013	-0.299975	0.212189	-0.342033	-0.277346	0.248935	-0.331843	-0.378075	0.097355	-0.382861	-0.352506	0.099161	-0.458079	-0.429731	0.095083	-0.426159	-0.296352	0.032701	-0.346358	-0.251582	0.045546	-0.409264	-0.223511	0.033944	-0.404168	-0.318860	0.632863	-0.683526	-0.293592	0.577126	-0.690661	-0.232634	0.599348	-0.698610	-0.250851	0.656421	-0.693311	-0.243438	0.367110	-0.688248	-0.220959	0.363636	-0.573798	-0.388220	0.252568	-0.663286	-0.407284	0.221072	-0.650483	-0.356007	0.189012	-0.665924	-0.342228	0.228860	-0.679190	-0.430845	0.101006	-0.633356	-0.411362	0.105016	-0.556576	-0.480355	0.108716	-0.579914	-0.356091	0.036402	-0.660209	-0.310773	0.047430	-0.596739	-0.285938	0.036199	-0.601703	
